<?xml version="1.0" encoding="utf-8"?>
<!-- Generator: Adobe Illustrator 23.0.1, SVG Export Plug-In . SVG Version: 6.00 Build 0)  -->
<svg version="1.1" id="Layer_1" xmlns="http://www.w3.org/2000/svg" xmlns:xlink="http://www.w3.org/1999/xlink" x="0px" y="0px"
	 viewBox="0 0 512 512" style="enable-background:new 0 0 512 512;" xml:space="preserve">
<style type="text/css">
	.st0{fill:#010101;}
</style>
<title>01</title>
<path class="st0" d="M370.7,401.5c-23,0-41.7,18.7-41.7,41.7s18.7,41.7,41.7,41.7s41.7-18.7,41.7-41.7
	C412.3,420.2,393.7,401.5,370.7,401.5z M391.5,443.2c0,11.5-9.4,20.9-20.9,20.9s-20.9-9.4-20.9-20.9c0-11.5,9.4-20.9,20.9-20.9l0,0
	C383.2,422.4,392.6,431.8,391.5,443.2L391.5,443.2z"/>
<path class="st0" d="M224.7,401.5c-23,0-41.7,18.7-41.7,41.7s18.7,41.7,41.7,41.7s41.7-18.7,41.7-41.7
	C266.3,420.2,247.7,401.5,224.7,401.5z M224.7,464.1c-11.5,0-20.9-9.4-20.9-20.9s9.4-20.9,20.9-20.9s20.9,9.4,20.9,20.9l0,0
	C245.5,454.7,236.2,464,224.7,464.1L224.7,464.1z"/>
<path class="st0" d="M407.1,161.7c19.3-51.5-6.9-108.9-58.4-128.2s-108.9,6.9-128.2,58.4c-8.4,22.5-8.4,47.2,0,69.7H147L108,28.3H11
	v19.8h81.3l92.8,316h231.4L501,161.7H407.1z M313.9,48.1c43.5,0,78.7,35.2,78.7,78.7s-35.2,78.7-78.7,78.7s-78.7-35.2-78.7-78.7
	c0-43.4,35.2-78.7,78.6-78.7C313.8,48,313.9,48,313.9,48.1z M403,343.2H199.7L153,182.6h78.3c30.8,45.6,92.7,57.5,138.3,26.7
	c10.5-7.1,19.6-16.2,26.7-26.7h73.4L403,343.2z"/>
<polygon class="st0" points="304,174.3 324.8,174.3 324.8,137.8 361.3,137.8 361.3,116.9 324.8,116.9 324.8,79.4 304,79.4 
	304,116.9 266.4,116.9 266.4,137.8 304,137.8 "/>
</svg>
