<?xml version="1.0" encoding="utf-8"?>
<!-- Generator: Adobe Illustrator 23.0.1, SVG Export Plug-In . SVG Version: 6.00 Build 0)  -->
<svg version="1.1" id="Layer_1" xmlns="http://www.w3.org/2000/svg" xmlns:xlink="http://www.w3.org/1999/xlink" x="0px" y="0px"
	 viewBox="0 0 512 512" style="enable-background:new 0 0 512 512;" xml:space="preserve">
<style type="text/css">
	.st0{fill:#010101;}
</style>
<title>01</title>
<circle class="st0" cx="192.6" cy="416.1" r="52.7"/>
<path class="st0" d="M361.5,362.9L361.5,362.9c-29.3-2.9-55.3,18.5-58.2,47.8s18.5,55.3,47.8,58.2c29.3,2.9,55.3-18.5,58.2-47.8
	c0.3-3.5,0.3-7,0-10.4C406.8,385.4,386.8,365.4,361.5,362.9z"/>
<path class="st0" d="M470.1,162.2c-2.6-3.9-7-6.3-11.8-6.2h-58.4v-1c0-61.9-50.2-112.1-112.2-112.1c-61.9,0-112.1,50.2-112.1,112.1
	l0,0v1h-43.5l-14.8-67.6c-1.7-6.9-7.8-11.7-14.8-11.8h-64v30.7h51.7L137.8,326c1.3,7.2,7.5,12.4,14.8,12.3h267.8
	c7.1,0,13.2-4.9,14.9-11.8L473.1,175C474.3,170.5,473.1,165.7,470.1,162.2z M287.8,236.4c-45,0-81.4-36.4-81.4-81.4
	s36.4-81.4,81.4-81.4c45,0,81.4,36.4,81.4,81.4C369.2,200,332.8,236.4,287.8,236.4C287.8,236.4,287.8,236.4,287.8,236.4z"/>
<path class="st0" d="M275.5,156.6l-28.2-28.7l-22,21.5l38.9,39.4c2.8,2.9,6.7,4.6,10.8,4.6c4,0.2,7.9-1.3,10.8-4.1l64.5-60.9
	l-21-22.5L275.5,156.6z"/>
</svg>
